<svg width="1320" height="1321" viewBox="0 0 1320 1321" fill="none" xmlns="http://www.w3.org/2000/svg">
<rect y="0.706055" width="1320" height="1320" fill="black"/>
<path d="M680.754 688.2C680.754 744.2 671.654 791.1 653.454 828.9C635.721 866.7 608.654 895.167 572.254 914.3C536.321 933.433 491.054 943 436.454 943H333.554V443.2H451.154C502.954 443.2 545.654 452.533 579.254 471.2C613.321 489.867 638.754 517.4 655.554 553.8C672.354 590.2 680.754 635 680.754 688.2ZM660.454 688.9C660.454 639.433 652.988 597.9 638.054 564.3C623.121 530.233 599.788 504.567 568.054 487.3C536.321 469.567 495.254 460.7 444.854 460.7H352.454V925.5H437.854C512.988 925.5 568.754 905.9 605.154 866.7C642.021 827.5 660.454 768.233 660.454 688.9ZM909.179 943H769.179V443.2H1051.98V551.7H909.179V646.9H1040.78V755.4H909.179V943Z" fill="white"/>
<path d="M720.438 688.2C720.438 744.2 711.338 791.1 693.138 828.9C675.405 866.7 648.338 895.167 611.938 914.3C576.005 933.433 530.738 943 476.138 943H373.238V443.2H490.838C542.638 443.2 585.338 452.533 618.938 471.2C653.005 489.867 678.438 517.4 695.238 553.8C712.038 590.2 720.438 635 720.438 688.2ZM700.138 688.9C700.138 639.433 692.671 597.9 677.738 564.3C662.805 530.233 639.471 504.567 607.738 487.3C576.005 469.567 534.938 460.7 484.538 460.7H392.138V925.5H477.538C552.671 925.5 608.438 905.9 644.838 866.7C681.705 827.5 700.138 768.233 700.138 688.9Z" fill="white"/>
</svg>
