<svg width="1255" height="194" viewBox="0 0 1255 194" fill="none" xmlns="http://www.w3.org/2000/svg">
<mask id="path-1-outside-1_2605_4002" maskUnits="userSpaceOnUse" x="0" y="0" width="1255" height="194" fill="black">
<rect fill="white" width="1255" height="194"/>
<path d="M66.0232 144.519C54.1568 144.519 43.2591 141.737 33.33 136.173C23.4009 130.609 15.5303 122.928 9.7182 113.13C3.90607 103.211 1 92.0224 1 79.5635C1 67.2256 3.90607 56.1578 9.7182 46.36C15.5303 36.4413 23.4009 28.6998 33.33 23.1357C43.2591 17.5715 54.1568 14.7894 66.0232 14.7894C78.0108 14.7894 88.9085 17.5715 98.7165 23.1357C108.646 28.6998 116.456 36.4413 122.147 46.36C127.959 56.1578 130.865 67.2256 130.865 79.5635C130.865 92.0224 127.959 103.211 122.147 113.13C116.456 122.928 108.646 130.609 98.7165 136.173C88.7874 141.737 77.8897 144.519 66.0232 144.519ZM66.0232 121.839C73.6517 121.839 80.3719 120.146 86.1841 116.759C91.9962 113.251 96.5369 108.292 99.8063 101.881C103.076 95.4698 104.71 88.0307 104.71 79.5635C104.71 71.0963 103.076 63.7178 99.8063 57.4278C96.5369 51.017 91.9962 46.1181 86.1841 42.7312C80.3719 39.3443 73.6517 37.6509 66.0232 37.6509C58.3948 37.6509 51.614 39.3443 45.6808 42.7312C39.8686 46.1181 35.3279 51.017 32.0586 57.4278C28.7893 63.7178 27.1546 71.0963 27.1546 79.5635C27.1546 88.0307 28.7893 95.4698 32.0586 101.881C35.3279 108.292 39.8686 113.251 45.6808 116.759C51.614 120.146 58.3948 121.839 66.0232 121.839Z"/>
<path d="M274.743 41.2797C287.094 41.2797 297.023 45.0899 304.531 52.7104C312.159 60.2099 315.973 70.7334 315.973 84.281V143.249H290.545V87.7283C290.545 79.8659 288.547 73.8784 284.551 69.7658C280.556 65.5322 275.107 63.4154 268.205 63.4154C261.303 63.4154 255.794 65.5322 251.677 69.7658C247.681 73.8784 245.683 79.8659 245.683 87.7283V143.249H220.255V87.7283C220.255 79.8659 218.257 73.8784 214.261 69.7658C210.265 65.5322 204.816 63.4154 197.914 63.4154C190.891 63.4154 185.321 65.5322 181.204 69.7658C177.209 73.8784 175.211 79.8659 175.211 87.7283V143.249H149.783V42.7312H175.211V54.8877C178.48 50.6541 182.658 47.3277 187.743 44.9085C192.95 42.4893 198.641 41.2797 204.816 41.2797C212.687 41.2797 219.71 42.9731 225.885 46.36C232.061 49.6259 236.844 54.3434 240.234 60.5123C243.503 54.7063 248.226 50.0493 254.401 46.5414C260.698 43.0336 267.478 41.2797 274.743 41.2797Z"/>
<path d="M395.863 41.2797C407.851 41.2797 417.538 45.0899 424.924 52.7104C432.31 60.2099 436.003 70.7334 436.003 84.281V143.249H410.575V87.7283C410.575 79.745 408.577 73.6365 404.581 69.4029C400.586 65.0483 395.137 62.871 388.235 62.871C381.212 62.871 375.642 65.0483 371.525 69.4029C367.529 73.6365 365.531 79.745 365.531 87.7283V143.249H340.103V42.7312H365.531V55.2506C368.922 50.896 373.22 47.5091 378.427 45.0899C383.755 42.5498 389.567 41.2797 395.863 41.2797Z"/>
<path d="M473.08 30.7562C468.599 30.7562 464.846 29.3651 461.819 26.583C458.913 23.68 457.46 20.1117 457.46 15.8781C457.46 11.6445 458.913 8.13664 461.819 5.35456C464.846 2.45152 468.599 1 473.08 1C477.56 1 481.253 2.45152 484.159 5.35456C487.186 8.13664 488.7 11.6445 488.7 15.8781C488.7 20.1117 487.186 23.68 484.159 26.583C481.253 29.3651 477.56 30.7562 473.08 30.7562ZM485.612 42.7312V143.249H460.184V42.7312H485.612Z"/>
<path d="M536.163 37.1066V68.8586H578.846V88.9984H536.163V122.565H584.295V143.249H510.735V16.4224H584.295V37.1066H536.163Z"/>
<path d="M600.864 92.6272C600.864 82.4666 602.862 73.4551 606.858 65.5927C610.975 57.7303 616.545 51.6822 623.568 47.4486C630.591 43.215 638.401 41.0982 646.998 41.0982C653.537 41.0982 659.773 42.5498 665.706 45.4528C671.639 48.2349 676.361 51.9846 679.873 56.7021V8.98337H705.664V143.249H679.873V128.371C676.725 133.33 672.305 137.322 666.614 140.346C660.923 143.37 654.324 144.882 646.816 144.882C638.34 144.882 630.591 142.705 623.568 138.35C616.545 133.996 610.975 127.887 606.858 120.025C602.862 112.041 600.864 102.909 600.864 92.6272ZM680.055 92.9901C680.055 86.8211 678.844 81.5594 676.422 77.2048C674 72.7293 670.731 69.3424 666.614 67.0442C662.497 64.625 658.078 63.4154 653.355 63.4154C648.633 63.4154 644.274 64.5645 640.278 66.8627C636.282 69.161 633.013 72.5479 630.47 77.0234C628.048 81.3779 626.837 86.5792 626.837 92.6272C626.837 98.6752 628.048 103.997 630.47 108.594C633.013 113.069 636.282 116.517 640.278 118.936C644.395 121.355 648.754 122.565 653.355 122.565C658.078 122.565 662.497 121.416 666.614 119.117C670.731 116.698 674 113.311 676.422 108.957C678.844 104.481 680.055 99.1591 680.055 92.9901Z"/>
<path d="M769.913 41.0982C777.42 41.0982 784.019 42.6102 789.71 45.6342C795.401 48.5373 799.882 52.3475 803.151 57.065V42.7312H828.761V143.975C828.761 153.289 826.884 161.574 823.13 168.832C819.377 176.211 813.746 182.017 806.239 186.25C798.731 190.605 789.65 192.782 778.994 192.782C764.706 192.782 752.961 189.456 743.758 182.803C734.677 176.15 729.531 167.078 728.32 155.587H753.566C754.898 160.183 757.744 163.812 762.103 166.473C766.583 169.255 771.971 170.646 778.268 170.646C785.654 170.646 791.648 168.409 796.249 163.933C800.85 159.579 803.151 152.926 803.151 143.975V128.371C799.882 133.088 795.341 137.02 789.529 140.164C783.838 143.309 777.299 144.882 769.913 144.882C761.437 144.882 753.687 142.705 746.664 138.35C739.641 133.996 734.071 127.887 729.954 120.025C725.959 112.041 723.961 102.909 723.961 92.6272C723.961 82.4666 725.959 73.4551 729.954 65.5927C734.071 57.7303 739.581 51.6822 746.483 47.4486C753.506 43.215 761.316 41.0982 769.913 41.0982ZM803.151 92.9901C803.151 86.8211 801.94 81.5594 799.518 77.2048C797.097 72.7293 793.827 69.3424 789.71 67.0442C785.593 64.625 781.174 63.4154 776.451 63.4154C771.729 63.4154 767.37 64.5645 763.374 66.8627C759.378 69.161 756.109 72.5479 753.566 77.0234C751.144 81.3779 749.934 86.5792 749.934 92.6272C749.934 98.6752 751.144 103.997 753.566 108.594C756.109 113.069 759.378 116.517 763.374 118.936C767.491 121.355 771.85 122.565 776.451 122.565C781.174 122.565 785.593 121.416 789.71 119.117C793.827 116.698 797.097 113.311 799.518 108.957C801.94 104.481 803.151 99.1591 803.151 92.9901Z"/>
<path d="M947.135 90.8128C947.135 94.4416 946.892 97.7075 946.408 100.611H872.848C873.454 107.868 875.997 113.553 880.477 117.666C884.957 121.779 890.466 123.835 897.005 123.835C906.45 123.835 913.17 119.783 917.166 111.678H944.592C941.686 121.355 936.116 129.339 927.882 135.628C919.648 141.797 909.537 144.882 897.55 144.882C887.863 144.882 879.145 142.765 871.395 138.532C863.767 134.177 857.773 128.069 853.414 120.206C849.176 112.344 847.057 103.272 847.057 92.9901C847.057 82.5875 849.176 73.4551 853.414 65.5927C857.652 57.7303 863.585 51.6822 871.214 47.4486C878.842 43.215 887.621 41.0982 897.55 41.0982C907.116 41.0982 915.652 43.1546 923.16 47.2672C930.788 51.3798 936.661 57.2464 940.778 64.8669C945.016 72.3664 947.135 81.015 947.135 90.8128ZM920.798 83.5552C920.677 77.0234 918.316 71.8221 913.715 67.9514C909.114 63.9597 903.483 61.9639 896.823 61.9639C890.527 61.9639 885.199 63.8992 880.84 67.7699C876.602 71.5197 873.999 76.7814 873.03 83.5552H920.798Z"/>
<path d="M1029.12 35.1107C1024.64 35.1107 1020.89 33.7197 1017.86 30.9376C1014.95 28.0346 1013.5 24.4662 1013.5 20.2326C1013.5 15.999 1014.95 12.4912 1017.86 9.70912C1020.89 6.80608 1024.64 5.35456 1029.12 5.35456C1033.6 5.35456 1037.29 6.80608 1040.2 9.70912C1043.23 12.4912 1044.74 15.999 1044.74 20.2326C1044.74 24.4662 1043.23 28.0346 1040.2 30.9376C1037.29 33.7197 1033.6 35.1107 1029.12 35.1107ZM1041.65 47.0858V147.604H1016.22V47.0858H1041.65Z"/>
<path d="M1127.86 46.36C1139.85 46.36 1149.53 50.1702 1156.92 57.7907C1164.31 65.2903 1168 75.8138 1168 89.3613V148.329H1142.57V92.8087C1142.57 84.8253 1140.57 78.7168 1136.58 74.4832C1132.58 70.1287 1127.13 67.9514 1120.23 67.9514C1113.21 67.9514 1107.64 70.1287 1103.52 74.4832C1099.53 78.7168 1097.53 84.8253 1097.53 92.8087V148.329H1072.1V47.8115H1097.53V60.3309C1100.92 55.9763 1105.22 52.5894 1110.42 50.1702C1115.75 47.6301 1121.56 46.36 1127.86 46.36Z"/>
<path d="M1188 95.3488C1188 85.1882 1190 76.1767 1193.99 68.3143C1198.11 60.4519 1203.68 54.4038 1210.7 50.1702C1217.73 45.9366 1225.54 43.8198 1234.13 43.8198C1240.67 43.8198 1252.84 48.1744 1252.84 48.1744L1253.75 69.7658C1249.63 67.3466 1245.21 66.137 1240.49 66.137C1235.77 66.137 1231.41 67.2861 1227.41 69.5843C1223.42 71.8826 1220.15 75.2695 1217.61 79.745C1215.18 84.0995 1213.97 89.3008 1213.97 95.3488C1213.97 101.397 1215.18 106.719 1217.61 111.316C1220.15 115.791 1223.42 119.238 1227.41 121.658C1231.53 124.077 1235.89 125.286 1240.49 125.286C1245.21 125.286 1249.63 124.137 1253.75 121.839V143.068C1248.06 146.092 1241.46 147.604 1233.95 147.604C1225.48 147.604 1217.73 145.426 1210.7 141.072C1203.68 136.717 1198.11 130.609 1193.99 122.746C1190 114.763 1188 105.63 1188 95.3488Z"/>
<path d="M1029.12 35.1107C1024.64 35.1107 1020.89 33.7197 1017.86 30.9376C1014.95 28.0346 1013.5 24.4662 1013.5 20.2326C1013.5 15.999 1014.95 12.4912 1017.86 9.70912C1020.89 6.80608 1024.64 5.35456 1029.12 5.35456C1033.6 5.35456 1037.29 6.80608 1040.2 9.70912C1043.23 12.4912 1044.74 15.999 1044.74 20.2326C1044.74 24.4662 1043.23 28.0346 1040.2 30.9376C1037.29 33.7197 1033.6 35.1107 1029.12 35.1107ZM1041.65 47.0858V147.604H1016.22V47.0858H1041.65Z"/>
<path d="M958.859 159.034C961.886 161.816 965.64 163.207 970.12 163.207C974.6 163.207 978.293 161.816 981.199 159.034C984.227 156.131 985.74 152.563 985.74 148.329C985.74 144.096 984.227 140.588 981.199 137.806C978.293 134.903 974.6 133.451 970.12 133.451C965.64 133.451 961.886 134.903 958.859 137.806C955.953 140.588 954.5 144.096 954.5 148.329C954.5 152.563 955.953 156.131 958.859 159.034Z"/>
</mask>
<path d="M66.0232 144.519C54.1568 144.519 43.2591 141.737 33.33 136.173C23.4009 130.609 15.5303 122.928 9.7182 113.13C3.90607 103.211 1 92.0224 1 79.5635C1 67.2256 3.90607 56.1578 9.7182 46.36C15.5303 36.4413 23.4009 28.6998 33.33 23.1357C43.2591 17.5715 54.1568 14.7894 66.0232 14.7894C78.0108 14.7894 88.9085 17.5715 98.7165 23.1357C108.646 28.6998 116.456 36.4413 122.147 46.36C127.959 56.1578 130.865 67.2256 130.865 79.5635C130.865 92.0224 127.959 103.211 122.147 113.13C116.456 122.928 108.646 130.609 98.7165 136.173C88.7874 141.737 77.8897 144.519 66.0232 144.519ZM66.0232 121.839C73.6517 121.839 80.3719 120.146 86.1841 116.759C91.9962 113.251 96.5369 108.292 99.8063 101.881C103.076 95.4698 104.71 88.0307 104.71 79.5635C104.71 71.0963 103.076 63.7178 99.8063 57.4278C96.5369 51.017 91.9962 46.1181 86.1841 42.7312C80.3719 39.3443 73.6517 37.6509 66.0232 37.6509C58.3948 37.6509 51.614 39.3443 45.6808 42.7312C39.8686 46.1181 35.3279 51.017 32.0586 57.4278C28.7893 63.7178 27.1546 71.0963 27.1546 79.5635C27.1546 88.0307 28.7893 95.4698 32.0586 101.881C35.3279 108.292 39.8686 113.251 45.6808 116.759C51.614 120.146 58.3948 121.839 66.0232 121.839Z" fill="white"/>
<path d="M274.743 41.2797C287.094 41.2797 297.023 45.0899 304.531 52.7104C312.159 60.2099 315.973 70.7334 315.973 84.281V143.249H290.545V87.7283C290.545 79.8659 288.547 73.8784 284.551 69.7658C280.556 65.5322 275.107 63.4154 268.205 63.4154C261.303 63.4154 255.794 65.5322 251.677 69.7658C247.681 73.8784 245.683 79.8659 245.683 87.7283V143.249H220.255V87.7283C220.255 79.8659 218.257 73.8784 214.261 69.7658C210.265 65.5322 204.816 63.4154 197.914 63.4154C190.891 63.4154 185.321 65.5322 181.204 69.7658C177.209 73.8784 175.211 79.8659 175.211 87.7283V143.249H149.783V42.7312H175.211V54.8877C178.48 50.6541 182.658 47.3277 187.743 44.9085C192.95 42.4893 198.641 41.2797 204.816 41.2797C212.687 41.2797 219.71 42.9731 225.885 46.36C232.061 49.6259 236.844 54.3434 240.234 60.5123C243.503 54.7063 248.226 50.0493 254.401 46.5414C260.698 43.0336 267.478 41.2797 274.743 41.2797Z" fill="white"/>
<path d="M395.863 41.2797C407.851 41.2797 417.538 45.0899 424.924 52.7104C432.31 60.2099 436.003 70.7334 436.003 84.281V143.249H410.575V87.7283C410.575 79.745 408.577 73.6365 404.581 69.4029C400.586 65.0483 395.137 62.871 388.235 62.871C381.212 62.871 375.642 65.0483 371.525 69.4029C367.529 73.6365 365.531 79.745 365.531 87.7283V143.249H340.103V42.7312H365.531V55.2506C368.922 50.896 373.22 47.5091 378.427 45.0899C383.755 42.5498 389.567 41.2797 395.863 41.2797Z" fill="white"/>
<path d="M473.08 30.7562C468.599 30.7562 464.846 29.3651 461.819 26.583C458.913 23.68 457.46 20.1117 457.46 15.8781C457.46 11.6445 458.913 8.13664 461.819 5.35456C464.846 2.45152 468.599 1 473.08 1C477.56 1 481.253 2.45152 484.159 5.35456C487.186 8.13664 488.7 11.6445 488.7 15.8781C488.7 20.1117 487.186 23.68 484.159 26.583C481.253 29.3651 477.56 30.7562 473.08 30.7562ZM485.612 42.7312V143.249H460.184V42.7312H485.612Z" fill="white"/>
<path d="M536.163 37.1066V68.8586H578.846V88.9984H536.163V122.565H584.295V143.249H510.735V16.4224H584.295V37.1066H536.163Z" fill="white"/>
<path d="M600.864 92.6272C600.864 82.4666 602.862 73.4551 606.858 65.5927C610.975 57.7303 616.545 51.6822 623.568 47.4486C630.591 43.215 638.401 41.0982 646.998 41.0982C653.537 41.0982 659.773 42.5498 665.706 45.4528C671.639 48.2349 676.361 51.9846 679.873 56.7021V8.98337H705.664V143.249H679.873V128.371C676.725 133.33 672.305 137.322 666.614 140.346C660.923 143.37 654.324 144.882 646.816 144.882C638.34 144.882 630.591 142.705 623.568 138.35C616.545 133.996 610.975 127.887 606.858 120.025C602.862 112.041 600.864 102.909 600.864 92.6272ZM680.055 92.9901C680.055 86.8211 678.844 81.5594 676.422 77.2048C674 72.7293 670.731 69.3424 666.614 67.0442C662.497 64.625 658.078 63.4154 653.355 63.4154C648.633 63.4154 644.274 64.5645 640.278 66.8627C636.282 69.161 633.013 72.5479 630.47 77.0234C628.048 81.3779 626.837 86.5792 626.837 92.6272C626.837 98.6752 628.048 103.997 630.47 108.594C633.013 113.069 636.282 116.517 640.278 118.936C644.395 121.355 648.754 122.565 653.355 122.565C658.078 122.565 662.497 121.416 666.614 119.117C670.731 116.698 674 113.311 676.422 108.957C678.844 104.481 680.055 99.1591 680.055 92.9901Z" fill="white"/>
<path d="M769.913 41.0982C777.42 41.0982 784.019 42.6102 789.71 45.6342C795.401 48.5373 799.882 52.3475 803.151 57.065V42.7312H828.761V143.975C828.761 153.289 826.884 161.574 823.13 168.832C819.377 176.211 813.746 182.017 806.239 186.25C798.731 190.605 789.65 192.782 778.994 192.782C764.706 192.782 752.961 189.456 743.758 182.803C734.677 176.15 729.531 167.078 728.32 155.587H753.566C754.898 160.183 757.744 163.812 762.103 166.473C766.583 169.255 771.971 170.646 778.268 170.646C785.654 170.646 791.648 168.409 796.249 163.933C800.85 159.579 803.151 152.926 803.151 143.975V128.371C799.882 133.088 795.341 137.02 789.529 140.164C783.838 143.309 777.299 144.882 769.913 144.882C761.437 144.882 753.687 142.705 746.664 138.35C739.641 133.996 734.071 127.887 729.954 120.025C725.959 112.041 723.961 102.909 723.961 92.6272C723.961 82.4666 725.959 73.4551 729.954 65.5927C734.071 57.7303 739.581 51.6822 746.483 47.4486C753.506 43.215 761.316 41.0982 769.913 41.0982ZM803.151 92.9901C803.151 86.8211 801.94 81.5594 799.518 77.2048C797.097 72.7293 793.827 69.3424 789.71 67.0442C785.593 64.625 781.174 63.4154 776.451 63.4154C771.729 63.4154 767.37 64.5645 763.374 66.8627C759.378 69.161 756.109 72.5479 753.566 77.0234C751.144 81.3779 749.934 86.5792 749.934 92.6272C749.934 98.6752 751.144 103.997 753.566 108.594C756.109 113.069 759.378 116.517 763.374 118.936C767.491 121.355 771.85 122.565 776.451 122.565C781.174 122.565 785.593 121.416 789.71 119.117C793.827 116.698 797.097 113.311 799.518 108.957C801.94 104.481 803.151 99.1591 803.151 92.9901Z" fill="white"/>
<path d="M947.135 90.8128C947.135 94.4416 946.892 97.7075 946.408 100.611H872.848C873.454 107.868 875.997 113.553 880.477 117.666C884.957 121.779 890.466 123.835 897.005 123.835C906.45 123.835 913.17 119.783 917.166 111.678H944.592C941.686 121.355 936.116 129.339 927.882 135.628C919.648 141.797 909.537 144.882 897.55 144.882C887.863 144.882 879.145 142.765 871.395 138.532C863.767 134.177 857.773 128.069 853.414 120.206C849.176 112.344 847.057 103.272 847.057 92.9901C847.057 82.5875 849.176 73.4551 853.414 65.5927C857.652 57.7303 863.585 51.6822 871.214 47.4486C878.842 43.215 887.621 41.0982 897.55 41.0982C907.116 41.0982 915.652 43.1546 923.16 47.2672C930.788 51.3798 936.661 57.2464 940.778 64.8669C945.016 72.3664 947.135 81.015 947.135 90.8128ZM920.798 83.5552C920.677 77.0234 918.316 71.8221 913.715 67.9514C909.114 63.9597 903.483 61.9639 896.823 61.9639C890.527 61.9639 885.199 63.8992 880.84 67.7699C876.602 71.5197 873.999 76.7814 873.03 83.5552H920.798Z" fill="white"/>
<path d="M1029.12 35.1107C1024.64 35.1107 1020.89 33.7197 1017.86 30.9376C1014.95 28.0346 1013.5 24.4662 1013.5 20.2326C1013.5 15.999 1014.95 12.4912 1017.86 9.70912C1020.89 6.80608 1024.64 5.35456 1029.12 5.35456C1033.6 5.35456 1037.29 6.80608 1040.2 9.70912C1043.23 12.4912 1044.74 15.999 1044.74 20.2326C1044.74 24.4662 1043.23 28.0346 1040.2 30.9376C1037.29 33.7197 1033.6 35.1107 1029.12 35.1107ZM1041.65 47.0858V147.604H1016.22V47.0858H1041.65Z" fill="white"/>
<path d="M1127.86 46.36C1139.85 46.36 1149.53 50.1702 1156.92 57.7907C1164.31 65.2903 1168 75.8138 1168 89.3613V148.329H1142.57V92.8087C1142.57 84.8253 1140.57 78.7168 1136.58 74.4832C1132.58 70.1287 1127.13 67.9514 1120.23 67.9514C1113.21 67.9514 1107.64 70.1287 1103.52 74.4832C1099.53 78.7168 1097.53 84.8253 1097.53 92.8087V148.329H1072.1V47.8115H1097.53V60.3309C1100.92 55.9763 1105.22 52.5894 1110.42 50.1702C1115.75 47.6301 1121.56 46.36 1127.86 46.36Z" fill="white"/>
<path d="M1188 95.3488C1188 85.1882 1190 76.1767 1193.99 68.3143C1198.11 60.4519 1203.68 54.4038 1210.7 50.1702C1217.73 45.9366 1225.54 43.8198 1234.13 43.8198C1240.67 43.8198 1252.84 48.1744 1252.84 48.1744L1253.75 69.7658C1249.63 67.3466 1245.21 66.137 1240.49 66.137C1235.77 66.137 1231.41 67.2861 1227.41 69.5843C1223.42 71.8826 1220.15 75.2695 1217.61 79.745C1215.18 84.0995 1213.97 89.3008 1213.97 95.3488C1213.97 101.397 1215.18 106.719 1217.61 111.316C1220.15 115.791 1223.42 119.238 1227.41 121.658C1231.53 124.077 1235.89 125.286 1240.49 125.286C1245.21 125.286 1249.63 124.137 1253.75 121.839V143.068C1248.06 146.092 1241.46 147.604 1233.95 147.604C1225.48 147.604 1217.73 145.426 1210.7 141.072C1203.68 136.717 1198.11 130.609 1193.99 122.746C1190 114.763 1188 105.63 1188 95.3488Z" fill="white"/>
<path d="M1029.12 35.1107C1024.64 35.1107 1020.89 33.7197 1017.86 30.9376C1014.95 28.0346 1013.5 24.4662 1013.5 20.2326C1013.5 15.999 1014.95 12.4912 1017.86 9.70912C1020.89 6.80608 1024.64 5.35456 1029.12 5.35456C1033.6 5.35456 1037.29 6.80608 1040.2 9.70912C1043.23 12.4912 1044.74 15.999 1044.74 20.2326C1044.74 24.4662 1043.23 28.0346 1040.2 30.9376C1037.29 33.7197 1033.6 35.1107 1029.12 35.1107ZM1041.65 47.0858V147.604H1016.22V47.0858H1041.65Z" fill="white"/>
<path d="M958.859 159.034C961.886 161.816 965.64 163.207 970.12 163.207C974.6 163.207 978.293 161.816 981.199 159.034C984.227 156.131 985.74 152.563 985.74 148.329C985.74 144.096 984.227 140.588 981.199 137.806C978.293 134.903 974.6 133.451 970.12 133.451C965.64 133.451 961.886 134.903 958.859 137.806C955.953 140.588 954.5 144.096 954.5 148.329C954.5 152.563 955.953 156.131 958.859 159.034Z" fill="white"/>
<path d="M66.0232 144.519C54.1568 144.519 43.2591 141.737 33.33 136.173C23.4009 130.609 15.5303 122.928 9.7182 113.13C3.90607 103.211 1 92.0224 1 79.5635C1 67.2256 3.90607 56.1578 9.7182 46.36C15.5303 36.4413 23.4009 28.6998 33.33 23.1357C43.2591 17.5715 54.1568 14.7894 66.0232 14.7894C78.0108 14.7894 88.9085 17.5715 98.7165 23.1357C108.646 28.6998 116.456 36.4413 122.147 46.36C127.959 56.1578 130.865 67.2256 130.865 79.5635C130.865 92.0224 127.959 103.211 122.147 113.13C116.456 122.928 108.646 130.609 98.7165 136.173C88.7874 141.737 77.8897 144.519 66.0232 144.519ZM66.0232 121.839C73.6517 121.839 80.3719 120.146 86.1841 116.759C91.9962 113.251 96.5369 108.292 99.8063 101.881C103.076 95.4698 104.71 88.0307 104.71 79.5635C104.71 71.0963 103.076 63.7178 99.8063 57.4278C96.5369 51.017 91.9962 46.1181 86.1841 42.7312C80.3719 39.3443 73.6517 37.6509 66.0232 37.6509C58.3948 37.6509 51.614 39.3443 45.6808 42.7312C39.8686 46.1181 35.3279 51.017 32.0586 57.4278C28.7893 63.7178 27.1546 71.0963 27.1546 79.5635C27.1546 88.0307 28.7893 95.4698 32.0586 101.881C35.3279 108.292 39.8686 113.251 45.6808 116.759C51.614 120.146 58.3948 121.839 66.0232 121.839Z" stroke="white" stroke-width="2" mask="url(#path-1-outside-1_2605_4002)"/>
<path d="M274.743 41.2797C287.094 41.2797 297.023 45.0899 304.531 52.7104C312.159 60.2099 315.973 70.7334 315.973 84.281V143.249H290.545V87.7283C290.545 79.8659 288.547 73.8784 284.551 69.7658C280.556 65.5322 275.107 63.4154 268.205 63.4154C261.303 63.4154 255.794 65.5322 251.677 69.7658C247.681 73.8784 245.683 79.8659 245.683 87.7283V143.249H220.255V87.7283C220.255 79.8659 218.257 73.8784 214.261 69.7658C210.265 65.5322 204.816 63.4154 197.914 63.4154C190.891 63.4154 185.321 65.5322 181.204 69.7658C177.209 73.8784 175.211 79.8659 175.211 87.7283V143.249H149.783V42.7312H175.211V54.8877C178.48 50.6541 182.658 47.3277 187.743 44.9085C192.95 42.4893 198.641 41.2797 204.816 41.2797C212.687 41.2797 219.71 42.9731 225.885 46.36C232.061 49.6259 236.844 54.3434 240.234 60.5123C243.503 54.7063 248.226 50.0493 254.401 46.5414C260.698 43.0336 267.478 41.2797 274.743 41.2797Z" stroke="white" stroke-width="2" mask="url(#path-1-outside-1_2605_4002)"/>
<path d="M395.863 41.2797C407.851 41.2797 417.538 45.0899 424.924 52.7104C432.31 60.2099 436.003 70.7334 436.003 84.281V143.249H410.575V87.7283C410.575 79.745 408.577 73.6365 404.581 69.4029C400.586 65.0483 395.137 62.871 388.235 62.871C381.212 62.871 375.642 65.0483 371.525 69.4029C367.529 73.6365 365.531 79.745 365.531 87.7283V143.249H340.103V42.7312H365.531V55.2506C368.922 50.896 373.22 47.5091 378.427 45.0899C383.755 42.5498 389.567 41.2797 395.863 41.2797Z" stroke="white" stroke-width="2" mask="url(#path-1-outside-1_2605_4002)"/>
<path d="M473.08 30.7562C468.599 30.7562 464.846 29.3651 461.819 26.583C458.913 23.68 457.46 20.1117 457.46 15.8781C457.46 11.6445 458.913 8.13664 461.819 5.35456C464.846 2.45152 468.599 1 473.08 1C477.56 1 481.253 2.45152 484.159 5.35456C487.186 8.13664 488.7 11.6445 488.7 15.8781C488.7 20.1117 487.186 23.68 484.159 26.583C481.253 29.3651 477.56 30.7562 473.08 30.7562ZM485.612 42.7312V143.249H460.184V42.7312H485.612Z" stroke="white" stroke-width="2" mask="url(#path-1-outside-1_2605_4002)"/>
<path d="M536.163 37.1066V68.8586H578.846V88.9984H536.163V122.565H584.295V143.249H510.735V16.4224H584.295V37.1066H536.163Z" stroke="white" stroke-width="2" mask="url(#path-1-outside-1_2605_4002)"/>
<path d="M600.864 92.6272C600.864 82.4666 602.862 73.4551 606.858 65.5927C610.975 57.7303 616.545 51.6822 623.568 47.4486C630.591 43.215 638.401 41.0982 646.998 41.0982C653.537 41.0982 659.773 42.5498 665.706 45.4528C671.639 48.2349 676.361 51.9846 679.873 56.7021V8.98337H705.664V143.249H679.873V128.371C676.725 133.33 672.305 137.322 666.614 140.346C660.923 143.37 654.324 144.882 646.816 144.882C638.34 144.882 630.591 142.705 623.568 138.35C616.545 133.996 610.975 127.887 606.858 120.025C602.862 112.041 600.864 102.909 600.864 92.6272ZM680.055 92.9901C680.055 86.8211 678.844 81.5594 676.422 77.2048C674 72.7293 670.731 69.3424 666.614 67.0442C662.497 64.625 658.078 63.4154 653.355 63.4154C648.633 63.4154 644.274 64.5645 640.278 66.8627C636.282 69.161 633.013 72.5479 630.47 77.0234C628.048 81.3779 626.837 86.5792 626.837 92.6272C626.837 98.6752 628.048 103.997 630.47 108.594C633.013 113.069 636.282 116.517 640.278 118.936C644.395 121.355 648.754 122.565 653.355 122.565C658.078 122.565 662.497 121.416 666.614 119.117C670.731 116.698 674 113.311 676.422 108.957C678.844 104.481 680.055 99.1591 680.055 92.9901Z" stroke="white" stroke-width="2" mask="url(#path-1-outside-1_2605_4002)"/>
<path d="M769.913 41.0982C777.42 41.0982 784.019 42.6102 789.71 45.6342C795.401 48.5373 799.882 52.3475 803.151 57.065V42.7312H828.761V143.975C828.761 153.289 826.884 161.574 823.13 168.832C819.377 176.211 813.746 182.017 806.239 186.25C798.731 190.605 789.65 192.782 778.994 192.782C764.706 192.782 752.961 189.456 743.758 182.803C734.677 176.15 729.531 167.078 728.32 155.587H753.566C754.898 160.183 757.744 163.812 762.103 166.473C766.583 169.255 771.971 170.646 778.268 170.646C785.654 170.646 791.648 168.409 796.249 163.933C800.85 159.579 803.151 152.926 803.151 143.975V128.371C799.882 133.088 795.341 137.02 789.529 140.164C783.838 143.309 777.299 144.882 769.913 144.882C761.437 144.882 753.687 142.705 746.664 138.35C739.641 133.996 734.071 127.887 729.954 120.025C725.959 112.041 723.961 102.909 723.961 92.6272C723.961 82.4666 725.959 73.4551 729.954 65.5927C734.071 57.7303 739.581 51.6822 746.483 47.4486C753.506 43.215 761.316 41.0982 769.913 41.0982ZM803.151 92.9901C803.151 86.8211 801.94 81.5594 799.518 77.2048C797.097 72.7293 793.827 69.3424 789.71 67.0442C785.593 64.625 781.174 63.4154 776.451 63.4154C771.729 63.4154 767.37 64.5645 763.374 66.8627C759.378 69.161 756.109 72.5479 753.566 77.0234C751.144 81.3779 749.934 86.5792 749.934 92.6272C749.934 98.6752 751.144 103.997 753.566 108.594C756.109 113.069 759.378 116.517 763.374 118.936C767.491 121.355 771.85 122.565 776.451 122.565C781.174 122.565 785.593 121.416 789.71 119.117C793.827 116.698 797.097 113.311 799.518 108.957C801.94 104.481 803.151 99.1591 803.151 92.9901Z" stroke="white" stroke-width="2" mask="url(#path-1-outside-1_2605_4002)"/>
<path d="M947.135 90.8128C947.135 94.4416 946.892 97.7075 946.408 100.611H872.848C873.454 107.868 875.997 113.553 880.477 117.666C884.957 121.779 890.466 123.835 897.005 123.835C906.45 123.835 913.17 119.783 917.166 111.678H944.592C941.686 121.355 936.116 129.339 927.882 135.628C919.648 141.797 909.537 144.882 897.55 144.882C887.863 144.882 879.145 142.765 871.395 138.532C863.767 134.177 857.773 128.069 853.414 120.206C849.176 112.344 847.057 103.272 847.057 92.9901C847.057 82.5875 849.176 73.4551 853.414 65.5927C857.652 57.7303 863.585 51.6822 871.214 47.4486C878.842 43.215 887.621 41.0982 897.55 41.0982C907.116 41.0982 915.652 43.1546 923.16 47.2672C930.788 51.3798 936.661 57.2464 940.778 64.8669C945.016 72.3664 947.135 81.015 947.135 90.8128ZM920.798 83.5552C920.677 77.0234 918.316 71.8221 913.715 67.9514C909.114 63.9597 903.483 61.9639 896.823 61.9639C890.527 61.9639 885.199 63.8992 880.84 67.7699C876.602 71.5197 873.999 76.7814 873.03 83.5552H920.798Z" stroke="white" stroke-width="2" mask="url(#path-1-outside-1_2605_4002)"/>
<path d="M1029.12 35.1107C1024.64 35.1107 1020.89 33.7197 1017.86 30.9376C1014.95 28.0346 1013.5 24.4662 1013.5 20.2326C1013.5 15.999 1014.95 12.4912 1017.86 9.70912C1020.89 6.80608 1024.64 5.35456 1029.12 5.35456C1033.6 5.35456 1037.29 6.80608 1040.2 9.70912C1043.23 12.4912 1044.74 15.999 1044.74 20.2326C1044.74 24.4662 1043.23 28.0346 1040.2 30.9376C1037.29 33.7197 1033.6 35.1107 1029.12 35.1107ZM1041.65 47.0858V147.604H1016.22V47.0858H1041.65Z" stroke="white" stroke-width="2" mask="url(#path-1-outside-1_2605_4002)"/>
<path d="M1127.86 46.36C1139.85 46.36 1149.53 50.1702 1156.92 57.7907C1164.31 65.2903 1168 75.8138 1168 89.3613V148.329H1142.57V92.8087C1142.57 84.8253 1140.57 78.7168 1136.58 74.4832C1132.58 70.1287 1127.13 67.9514 1120.23 67.9514C1113.21 67.9514 1107.64 70.1287 1103.52 74.4832C1099.53 78.7168 1097.53 84.8253 1097.53 92.8087V148.329H1072.1V47.8115H1097.53V60.3309C1100.92 55.9763 1105.22 52.5894 1110.42 50.1702C1115.75 47.6301 1121.56 46.36 1127.86 46.36Z" stroke="white" stroke-width="2" mask="url(#path-1-outside-1_2605_4002)"/>
<path d="M1188 95.3488C1188 85.1882 1190 76.1767 1193.99 68.3143C1198.11 60.4519 1203.68 54.4038 1210.7 50.1702C1217.73 45.9366 1225.54 43.8198 1234.13 43.8198C1240.67 43.8198 1252.84 48.1744 1252.84 48.1744L1253.75 69.7658C1249.63 67.3466 1245.21 66.137 1240.49 66.137C1235.77 66.137 1231.41 67.2861 1227.41 69.5843C1223.42 71.8826 1220.15 75.2695 1217.61 79.745C1215.18 84.0995 1213.97 89.3008 1213.97 95.3488C1213.97 101.397 1215.18 106.719 1217.61 111.316C1220.15 115.791 1223.42 119.238 1227.41 121.658C1231.53 124.077 1235.89 125.286 1240.49 125.286C1245.21 125.286 1249.63 124.137 1253.75 121.839V143.068C1248.06 146.092 1241.46 147.604 1233.95 147.604C1225.48 147.604 1217.73 145.426 1210.7 141.072C1203.68 136.717 1198.11 130.609 1193.99 122.746C1190 114.763 1188 105.63 1188 95.3488Z" stroke="white" stroke-width="2" mask="url(#path-1-outside-1_2605_4002)"/>
<path d="M1029.12 35.1107C1024.64 35.1107 1020.89 33.7197 1017.86 30.9376C1014.95 28.0346 1013.5 24.4662 1013.5 20.2326C1013.5 15.999 1014.95 12.4912 1017.86 9.70912C1020.89 6.80608 1024.64 5.35456 1029.12 5.35456C1033.6 5.35456 1037.29 6.80608 1040.2 9.70912C1043.23 12.4912 1044.74 15.999 1044.74 20.2326C1044.74 24.4662 1043.23 28.0346 1040.2 30.9376C1037.29 33.7197 1033.6 35.1107 1029.12 35.1107ZM1041.65 47.0858V147.604H1016.22V47.0858H1041.65Z" stroke="white" stroke-width="2" mask="url(#path-1-outside-1_2605_4002)"/>
<path d="M958.859 159.034C961.886 161.816 965.64 163.207 970.12 163.207C974.6 163.207 978.293 161.816 981.199 159.034C984.227 156.131 985.74 152.563 985.74 148.329C985.74 144.096 984.227 140.588 981.199 137.806C978.293 134.903 974.6 133.451 970.12 133.451C965.64 133.451 961.886 134.903 958.859 137.806C955.953 140.588 954.5 144.096 954.5 148.329C954.5 152.563 955.953 156.131 958.859 159.034Z" stroke="white" stroke-width="2" mask="url(#path-1-outside-1_2605_4002)"/>
</svg>
