<svg width="947" height="193" viewBox="0 0 947 193" fill="none" xmlns="http://www.w3.org/2000/svg">
<path d="M65.3405 143.91C53.4741 143.91 42.5763 141.128 32.6473 135.564C22.7182 130 14.8476 122.319 9.03549 112.521C3.22336 102.602 0.317291 91.4134 0.317291 78.9545C0.317291 66.6166 3.22336 55.5488 9.03549 45.751C14.8476 35.8323 22.7182 28.0908 32.6473 22.5267C42.5763 16.9625 53.4741 14.1804 65.3405 14.1804C77.3281 14.1804 88.2258 16.9625 98.0338 22.5267C107.963 28.0908 115.773 35.8323 121.464 45.751C127.276 55.5488 130.182 66.6166 130.182 78.9545C130.182 91.4134 127.276 102.602 121.464 112.521C115.773 122.319 107.963 130 98.0338 135.564C88.1047 141.128 77.207 143.91 65.3405 143.91ZM65.3405 121.23C72.969 121.23 79.6892 119.537 85.5014 116.15C91.3135 112.642 95.8542 107.683 99.1236 101.272C102.393 94.8608 104.028 87.4217 104.028 78.9545C104.028 70.4873 102.393 63.1088 99.1236 56.8188C95.8542 50.408 91.3135 45.5091 85.5014 42.1222C79.6892 38.7353 72.969 37.0419 65.3405 37.0419C57.7121 37.0419 50.9313 38.7353 44.9981 42.1222C39.1859 45.5091 34.6452 50.408 31.3759 56.8188C28.1066 63.1088 26.4719 70.4873 26.4719 78.9545C26.4719 87.4217 28.1066 94.8608 31.3759 101.272C34.6452 107.683 39.1859 112.642 44.9981 116.15C50.9313 119.537 57.7121 121.23 65.3405 121.23Z" fill="white"/>
<path d="M274.061 40.6707C286.412 40.6707 296.341 44.4809 303.848 52.1014C311.476 59.6009 315.291 70.1244 315.291 83.672V142.64H289.863V87.1193C289.863 79.2569 287.865 73.2694 283.869 69.1568C279.873 64.9232 274.424 62.8064 267.522 62.8064C260.62 62.8064 255.111 64.9232 250.994 69.1568C246.998 73.2694 245 79.2569 245 87.1193V142.64H219.572V87.1193C219.572 79.2569 217.574 73.2694 213.578 69.1568C209.582 64.9232 204.134 62.8064 197.232 62.8064C190.209 62.8064 184.639 64.9232 180.522 69.1568C176.526 73.2694 174.528 79.2569 174.528 87.1193V142.64H149.1V42.1222H174.528V54.2787C177.797 50.0451 181.975 46.7187 187.06 44.2995C192.267 41.8803 197.958 40.6707 204.134 40.6707C212.004 40.6707 219.027 42.3641 225.203 45.751C231.378 49.0169 236.161 53.7344 239.551 59.9033C242.821 54.0972 247.543 49.4403 253.718 45.9324C260.015 42.4246 266.796 40.6707 274.061 40.6707Z" fill="white"/>
<path d="M395.181 40.6707C407.168 40.6707 416.855 44.4809 424.241 52.1014C431.627 59.6009 435.321 70.1244 435.321 83.672V142.64H409.892V87.1193C409.892 79.136 407.895 73.0275 403.899 68.7939C399.903 64.4393 394.454 62.262 387.552 62.262C380.529 62.262 374.959 64.4393 370.842 68.7939C366.846 73.0275 364.848 79.136 364.848 87.1193V142.64H339.42V42.1222H364.848V54.6416C368.239 50.287 372.537 46.9001 377.744 44.4809C383.072 41.9408 388.884 40.6707 395.181 40.6707Z" fill="white"/>
<path d="M472.397 30.1472C467.917 30.1472 464.163 28.7561 461.136 25.974C458.23 23.071 456.777 19.5027 456.777 15.2691C456.777 11.0355 458.23 7.52763 461.136 4.74555C464.163 1.84251 467.917 0.390991 472.397 0.390991C476.877 0.390991 480.57 1.84251 483.476 4.74555C486.504 7.52763 488.017 11.0355 488.017 15.2691C488.017 19.5027 486.504 23.071 483.476 25.974C480.57 28.7561 476.877 30.1472 472.397 30.1472ZM484.929 42.1222V142.64H459.501V42.1222H484.929Z" fill="white"/>
<path d="M535.481 36.4976V68.2496H578.163V88.3894H535.481V121.956H583.612V142.64H510.052V15.8134H583.612V36.4976H535.481Z" fill="white"/>
<path d="M600.182 92.0182C600.182 81.8576 602.18 72.846 606.175 64.9836C610.292 57.1212 615.862 51.0732 622.885 46.8396C629.908 42.606 637.718 40.4892 646.315 40.4892C652.854 40.4892 659.09 41.9408 665.023 44.8438C670.957 47.6259 675.679 51.3756 679.19 56.0931V8.37436H704.982V142.64H679.19V127.762C676.042 132.721 671.622 136.713 665.931 139.737C660.24 142.761 653.641 144.273 646.134 144.273C637.658 144.273 629.908 142.096 622.885 137.741C615.862 133.387 610.292 127.278 606.175 119.416C602.18 111.432 600.182 102.3 600.182 92.0182ZM679.372 92.3811C679.372 86.2121 678.161 80.9504 675.739 76.5958C673.318 72.1203 670.048 68.7334 665.931 66.4352C661.814 64.016 657.395 62.8064 652.672 62.8064C647.95 62.8064 643.591 63.9555 639.595 66.2537C635.599 68.552 632.33 71.9388 629.787 76.4144C627.365 80.7689 626.155 85.9702 626.155 92.0182C626.155 98.0662 627.365 103.388 629.787 107.985C632.33 112.46 635.599 115.908 639.595 118.327C643.712 120.746 648.071 121.956 652.672 121.956C657.395 121.956 661.814 120.807 665.931 118.508C670.048 116.089 673.318 112.702 675.739 108.348C678.161 103.872 679.372 98.55 679.372 92.3811Z" fill="white"/>
<path d="M769.23 40.4892C776.737 40.4892 783.337 42.0012 789.028 45.0252C794.719 47.9283 799.199 51.7385 802.468 56.456V42.1222H828.078V143.366C828.078 152.68 826.201 160.965 822.448 168.223C818.694 175.602 813.063 181.408 805.556 185.641C798.049 189.996 788.967 192.173 778.312 192.173C764.023 192.173 752.278 188.847 743.076 182.194C733.994 175.541 728.848 166.469 727.637 154.978H752.884C754.215 159.574 757.061 163.203 761.42 165.864C765.9 168.646 771.289 170.037 777.585 170.037C784.971 170.037 790.965 167.8 795.566 163.324C800.168 158.97 802.468 152.317 802.468 143.366V127.762C799.199 132.479 794.658 136.411 788.846 139.555C783.155 142.7 776.616 144.273 769.23 144.273C760.754 144.273 753.005 142.096 745.982 137.741C738.959 133.387 733.389 127.278 729.272 119.416C725.276 111.432 723.278 102.3 723.278 92.0182C723.278 81.8576 725.276 72.846 729.272 64.9836C733.389 57.1212 738.898 51.0732 745.8 46.8396C752.823 42.606 760.633 40.4892 769.23 40.4892ZM802.468 92.3811C802.468 86.2121 801.257 80.9504 798.836 76.5958C796.414 72.1203 793.145 68.7334 789.028 66.4352C784.911 64.016 780.491 62.8064 775.769 62.8064C771.046 62.8064 766.687 63.9555 762.692 66.2537C758.696 68.552 755.426 71.9388 752.884 76.4144C750.462 80.7689 749.251 85.9702 749.251 92.0182C749.251 98.0662 750.462 103.388 752.884 107.985C755.426 112.46 758.696 115.908 762.692 118.327C766.808 120.746 771.168 121.956 775.769 121.956C780.491 121.956 784.911 120.807 789.028 118.508C793.145 116.089 796.414 112.702 798.836 108.348C801.257 103.872 802.468 98.55 802.468 92.3811Z" fill="white"/>
<path d="M946.452 90.2038C946.452 93.8326 946.21 97.0985 945.725 100.002H872.166C872.771 107.259 875.314 112.944 879.794 117.057C884.274 121.17 889.784 123.226 896.322 123.226C905.767 123.226 912.487 119.174 916.483 111.069H943.909C941.003 120.746 935.433 128.73 927.199 135.019C918.965 141.188 908.855 144.273 896.867 144.273C887.18 144.273 878.462 142.156 870.713 137.923C863.084 133.568 857.09 127.459 852.731 119.597C848.493 111.735 846.374 102.663 846.374 92.3811C846.374 81.9785 848.493 72.846 852.731 64.9836C856.969 57.1212 862.903 51.0732 870.531 46.8396C878.159 42.606 886.938 40.4892 896.867 40.4892C906.433 40.4892 914.97 42.5456 922.477 46.6582C930.105 50.7708 935.978 56.6374 940.095 64.2579C944.333 71.7574 946.452 80.406 946.452 90.2038ZM920.116 82.9462C919.995 76.4144 917.634 71.2131 913.032 67.3424C908.431 63.3507 902.8 61.3548 896.141 61.3548C889.844 61.3548 884.516 63.2902 880.157 67.1609C875.919 70.9107 873.316 76.1724 872.347 82.9462H920.116Z" fill="white"/>
</svg>
